HIERARCHY
ROOT hip
{
  OFFSET 0.00112043 5.09927 -9.65472
  CHANNELS 6 Xposition Yposition Zposition Zrotation Xrotation Yrotation
  JOINT abdomen
  {
    OFFSET 0 -1.186 -1.5018
    CHANNELS 3 Zrotation Xrotation Yrotation
    JOINT abdomen2
    {
      OFFSET 0 9.964 0.2134
      CHANNELS 3 Zrotation Xrotation Yrotation
      JOINT chest
      {
        OFFSET 0 13.134 -3.2573
        CHANNELS 3 Zrotation Xrotation Yrotation
        JOINT neck
        {
          OFFSET 0 20.686 -1.6905
          CHANNELS 3 Zrotation Xrotation Yrotation
          JOINT head
          {
            OFFSET 0 7.238 -0.1237
            CHANNELS 3 Zrotation Xrotation Yrotation
            End Site
            {
              OFFSET 0 0 0
            }
          }
        }
        JOINT lCollar
        {
          OFFSET 1.7069 20.075 5.0056
          CHANNELS 3 Zrotation Xrotation Yrotation
          JOINT lShldr
          {
            OFFSET 13.6458 -0.047 -4.849
            CHANNELS 3 Zrotation Xrotation Yrotation
            JOINT lForeArm
            {
              OFFSET 28.3255 -0.9759 2.2888
              CHANNELS 3 Zrotation Xrotation Yrotation
              JOINT lHand
              {
                OFFSET 22.1583 -0.53 10.8316
                CHANNELS 3 Zrotation Xrotation Yrotation
                JOINT lThumb1
                {
                  OFFSET 0.786 0.112 2.5817
                  CHANNELS 3 Zrotation Xrotation Yrotation
                  JOINT lThumb2
                  {
                    OFFSET 0.3601 -0.878 4.2331
                    CHANNELS 3 Zrotation Xrotation Yrotation
                    JOINT lThumb2_End
                    {
                      OFFSET 1.8127 -1.216 2.2227
                      CHANNELS 3 Zrotation Xrotation Yrotation
                      End Site
                      {
                        OFFSET 0.0181 -0.0122 0.0222
                      }
                    }
                  }
                }
                JOINT lCarpal1
                {
                  OFFSET 0.9571 1.114 1.7695
                  CHANNELS 3 Zrotation Xrotation Yrotation
                  JOINT lIndex1
                  {
                    OFFSET 4.1246 0.487 4.1451
                    CHANNELS 3 Zrotation Xrotation Yrotation
                    JOINT lIndex2
                    {
                      OFFSET 3.4052 -1.454 2.7682
                      CHANNELS 3 Zrotation Xrotation Yrotation
                      JOINT lIndex2_End
                      {
                        OFFSET 1.4531 -1.795 1.2713
                        CHANNELS 3 Zrotation Xrotation Yrotation
                        End Site
                        {
                          OFFSET 0.0145 -0.0179 0.0127
                        }
                      }
                    }
                  }
                  JOINT lMid1
                  {
                    OFFSET 5.6954 0.21 2.1184
                    CHANNELS 3 Zrotation Xrotation Yrotation
                    JOINT lMid2
                    {
                      OFFSET 3.9766 -1.54 2.3863
                      CHANNELS 3 Zrotation Xrotation Yrotation
                      JOINT lMid2_End
                      {
                        OFFSET 1.4042 -1.926 1.125
                        CHANNELS 3 Zrotation Xrotation Yrotation
                        End Site
                        {
                          OFFSET 0.014 -0.0193 0.0113
                        }
                      }
                    }
                  }
                }
                JOINT lCarpal2
                {
                  OFFSET 2.0956 0.66 -0.3894
                  CHANNELS 3 Zrotation Xrotation Yrotation
                  JOINT lRing1
                  {
                    OFFSET 5.0395 -0.09 2.4971
                    CHANNELS 3 Zrotation Xrotation Yrotation
                    JOINT lRing2
                    {
                      OFFSET 3.7921 -1.552 1.4806
                      CHANNELS 3 Zrotation Xrotation Yrotation
                      JOINT lRing2_End
                      {
                        OFFSET 1.4655 -1.808 0.9609
                        CHANNELS 3 Zrotation Xrotation Yrotation
                        End Site
                        {
                          OFFSET 0.0147 -0.0181 0.0096
                        }
                      }
                    }
                  }
                  JOINT lPinky1
                  {
                    OFFSET 4.9141 -1.269 0.3591
                    CHANNELS 3 Zrotation Xrotation Yrotation
                    JOINT lPinky2
                    {
                      OFFSET 3.1477 -1.685 0.8462
                      CHANNELS 3 Zrotation Xrotation Yrotation
                      JOINT lPinky2_End
                      {
                        OFFSET 0.8055 -1.585 0.7955
                        CHANNELS 3 Zrotation Xrotation Yrotation
                        End Site
                        {
                          OFFSET 0.0081 -0.0158 0.008
                        }
                      }
                    }
                  }
                }
              }
            }
          }
        }
        JOINT rCollar
        {
          OFFSET -1.7069 20.075 5.0056
          CHANNELS 3 Zrotation Xrotation Yrotation
          JOINT rShldr
          {
            OFFSET -13.6458 -0.047 -4.849
            CHANNELS 3 Zrotation Xrotation Yrotation
            JOINT rForeArm
            {
              OFFSET -28.3255 -0.9759 2.2888
              CHANNELS 3 Zrotation Xrotation Yrotation
              JOINT rHand
              {
                OFFSET -22.1583 -0.53 10.8316
                CHANNELS 3 Zrotation Xrotation Yrotation
                JOINT rThumb1
                {
                  OFFSET -0.786 0.112 2.5817
                  CHANNELS 3 Zrotation Xrotation Yrotation
                  JOINT rThumb2
                  {
                    OFFSET -0.3601 -0.878 4.2331
                    CHANNELS 3 Zrotation Xrotation Yrotation
                    JOINT rThumb2_End
                    {
                      OFFSET -1.8127 -1.216 2.2227
                      CHANNELS 3 Zrotation Xrotation Yrotation
                      End Site
                      {
                        OFFSET -0.0181 -0.0122 0.0222
                      }
                    }
                  }
                }
                JOINT rCarpal1
                {
                  OFFSET -0.9571 1.114 1.7695
                  CHANNELS 3 Zrotation Xrotation Yrotation
                  JOINT rIndex1
                  {
                    OFFSET -4.1246 0.487 4.1451
                    CHANNELS 3 Zrotation Xrotation Yrotation
                    JOINT rIndex2
                    {
                      OFFSET -3.4052 -1.454 2.7682
                      CHANNELS 3 Zrotation Xrotation Yrotation
                      JOINT rIndex2_End
                      {
                        OFFSET -1.4531 -1.795 1.2713
                        CHANNELS 3 Zrotation Xrotation Yrotation
                        End Site
                        {
                          OFFSET -0.0145 -0.018 0.0127
                        }
                      }
                    }
                  }
                  JOINT rMid1
                  {
                    OFFSET -5.6954 0.21 2.1184
                    CHANNELS 3 Zrotation Xrotation Yrotation
                    JOINT rMid2
                    {
                      OFFSET -3.9766 -1.54 2.3863
                      CHANNELS 3 Zrotation Xrotation Yrotation
                      JOINT rMid2_End
                      {
                        OFFSET -1.4042 -1.926 1.125
                        CHANNELS 3 Zrotation Xrotation Yrotation
                        End Site
                        {
                          OFFSET -0.014 -0.0193 0.0113
                        }
                      }
                    }
                  }
                }
                JOINT rCarpal2
                {
                  OFFSET -2.0956 0.66 -0.3894
                  CHANNELS 3 Zrotation Xrotation Yrotation
                  JOINT rRing1
                  {
                    OFFSET -5.0395 -0.09 2.4971
                    CHANNELS 3 Zrotation Xrotation Yrotation
                    JOINT rRing2
                    {
                      OFFSET -3.7921 -1.552 1.4806
                      CHANNELS 3 Zrotation Xrotation Yrotation
                      JOINT rRing2_End
                      {
                        OFFSET -1.4655 -1.808 0.9609
                        CHANNELS 3 Zrotation Xrotation Yrotation
                        End Site
                        {
                          OFFSET -0.0147 -0.0181 0.0096
                        }
                      }
                    }
                  }
                  JOINT rPinky1
                  {
                    OFFSET -4.9141 -1.269 0.3592
                    CHANNELS 3 Zrotation Xrotation Yrotation
                    JOINT rPinky2
                    {
                      OFFSET -3.1477 -1.685 0.8462
                      CHANNELS 3 Zrotation Xrotation Yrotation
                      JOINT rPinky2_End
                      {
                        OFFSET -0.8055 -1.585 0.7955
                        CHANNELS 3 Zrotation Xrotation Yrotation
                        End Site
                        {
                          OFFSET -0.0081 -0.0158 0.008
                        }
                      }
                    }
                  }
                }
              }
            }
          }
        }
      }
    }
  }
  JOINT lThigh
  {
    OFFSET 8.367 -8.2066 0.5982
    CHANNELS 3 Zrotation Xrotation Yrotation
    JOINT lShin
    {
      OFFSET 2.1923 -43.463 -0.4932
      CHANNELS 3 Zrotation Xrotation Yrotation
      JOINT lFoot
      {
        OFFSET 0.7333 -45.8593 -2.6451
        CHANNELS 3 Zrotation Xrotation Yrotation
        End Site
        {
          OFFSET 2.6618 -4.2699 12.3931
        }
      }
    }
  }
  JOINT rThigh
  {
    OFFSET -8.367 -8.2066 0.5982
    CHANNELS 3 Zrotation Xrotation Yrotation
    JOINT rShin
    {
      OFFSET -2.1923 -43.463 -0.4931
      CHANNELS 3 Zrotation Xrotation Yrotation
      JOINT rFoot
      {
        OFFSET -0.7333 -45.8593 -2.6451
        CHANNELS 3 Zrotation Xrotation Yrotation
        End Site
        {
          OFFSET -2.6618 -4.2699 12.3931
        }
      }
    }
  }
}
MOTION
Frames:	4
Frame Time:	0.0333333
0.138918 89.4173 27.7342 -5.98088e-015 8.39755 180 -0.491453 4.54962 -0.228056 -0.969278 9.10103 -0.418804 -0.969279 9.10103 -0.418804 24.743 -13.6532 5.20626 11.3452 -14.1297 -25.1969 -16.1513 -20.6543 -26.2978 -15.3307 -19.4875 -43.6412 -27.4729 18.097 -43.1797 -28.8522 -7.65236 13.1947 1.31327e-006 -8.40641e-007 -6.89093e-007 3.18055e-015 -3.18055e-015 1.59028e-015 1.31327e-006 -8.40641e-007 -6.89093e-007 -2.64834e-031 3.18055e-015 4.77083e-015 1.31327e-006 -8.40641e-007 -6.89093e-007 -4.41391e-031 3.18055e-015 7.95139e-015 1.31327e-006 -8.40641e-007 -6.89093e-007 1.31327e-006 -8.40641e-007 -6.89093e-007 -4.41391e-031 3.18055e-015 7.95139e-015 1.31327e-006 -8.40641e-007 -6.89093e-007 -2.64834e-031 3.18055e-015 4.77083e-015 1.31327e-006 -8.40641e-007 -6.89093e-007 -4.41391e-031 3.18055e-015 7.95139e-015 1.31327e-006 -8.40641e-007 -6.89093e-007 1.31327e-006 -8.40641e-007 -6.89093e-007 -4.41391e-031 3.18055e-015 7.95139e-015 1.31327e-006 -8.40641e-007 -6.89093e-007 1.78879 -4.22248 0.575627 66.4961 6.47668 24.0537 17.4546 6.7149 5.04218 -0.53465 0.483422 2.88044 -2.03569e-007 -6.05904e-007 5.6573e-007 1.59028e-015 0 -3.18055e-015 -2.03569e-007 -6.05904e-007 5.6573e-007 0 3.18055e-015 -0 -2.03569e-007 -6.05904e-007 5.6573e-007 1.59028e-015 6.36111e-015 -6.36111e-015 -2.03569e-007 -6.05904e-007 5.6573e-007 -2.03569e-007 -6.05904e-007 5.6573e-007 1.59028e-015 6.36111e-015 -6.36111e-015 -2.03569e-007 -6.05904e-007 5.6573e-007 0 3.18055e-015 -0 -2.03569e-007 -6.05904e-007 5.6573e-007 1.59028e-015 6.36111e-015 -6.36111e-015 -2.03569e-007 -6.05904e-007 5.6573e-007 -2.03569e-007 -6.05904e-007 5.6573e-007 1.59028e-015 6.36111e-015 -6.36111e-015 -2.03569e-007 -6.05904e-007 5.6573e-007 -3.88534 -8.95471 0.977581 -4.31516 32.9389 3.94959 12.581 -1.90247 0.188928 177.468 -13.562 177.37 1.15781 45.1276 -2.56013 -8.99672 -14.8362 -1.10772 
0.141317 89.3858 27.7544 -6.03106e-015 7.99615 180 -0.491485 4.45617 -0.22916 -0.969448 8.91408 -0.421759 -0.969448 8.91408 -0.421758 24.7926 -14.0903 5.41397 11.36 -14.4203 -25.1367 -16.171 -20.5626 -26.1352 -15.3275 -19.4895 -43.6276 -27.5222 18.1835 -43.3652 -28.7715 -7.70393 13.3169 -1.31248e-006 8.41402e-007 6.89719e-007 -6.36111e-015 6.36111e-015 3.18055e-015 -3.18055e-015 4.77083e-015 -3.18055e-015 -4.41391e-032 -1.59028e-015 -1.59028e-015 -1.31248e-006 8.41402e-007 6.89719e-007 6.36111e-015 -1.59028e-015 -3.18055e-015 3.18055e-015 -4.77083e-015 -4.77083e-015 -1.31248e-006 8.41402e-007 6.89719e-007 6.36111e-015 -1.59028e-015 -3.18055e-015 3.18055e-015 -4.77083e-015 -4.77083e-015 -4.41391e-032 -1.59028e-015 -1.59028e-015 -1.31248e-006 8.41402e-007 6.89719e-007 6.36111e-015 -1.59028e-015 -3.18055e-015 3.18055e-015 -4.77083e-015 -4.77083e-015 -1.31248e-006 8.41402e-007 6.89719e-007 6.36111e-015 -1.59028e-015 -3.18055e-015 3.18055e-015 -4.77083e-015 -4.77083e-015 1.78448 -4.07025 0.532152 66.4961 6.47667 24.0537 17.5058 6.73909 5.10359 -0.602124 0.504745 2.92832 8.15037e-007 2.42349e-006 -2.26279e-006 4.07519e-007 1.21175e-006 -1.13139e-006 2.03759e-007 6.05873e-007 -5.65697e-007 1.59028e-015 6.36111e-015 -0 8.15037e-007 2.42349e-006 -2.26279e-006 4.07519e-007 1.21175e-006 -1.13139e-006 2.03759e-007 6.05873e-007 -5.65697e-007 8.15037e-007 2.42349e-006 -2.26279e-006 4.07519e-007 1.21175e-006 -1.13139e-006 2.03759e-007 6.05873e-007 -5.65697e-007 1.59028e-015 6.36111e-015 -0 8.15037e-007 2.42349e-006 -2.26279e-006 4.07519e-007 1.21175e-006 -1.13139e-006 2.03759e-007 6.05873e-007 -5.65697e-007 8.15037e-007 2.42349e-006 -2.26279e-006 4.07519e-007 1.21175e-006 -1.13139e-006 2.03759e-007 6.05873e-007 -5.65697e-007 -3.91345 -9.49932 0.959478 -4.26716 33.1138 3.93619 12.5686 -2.01586 0.208105 177.505 -13.3265 177.415 1.26568 44.8335 -2.61365 -9.03644 -14.7092 -1.09317 
0.143743 89.3542 27.7744 -6.08113e-015 7.59479 180 -0.49148 4.36268 -0.230261 -0.96955 8.72715 -0.424712 -0.96955 8.72715 -0.424712 24.8441 -14.5269 5.62237 11.3752 -14.7109 -25.0764 -16.191 -20.4709 -25.9727 -15.3242 -19.4914 -43.6139 -27.5712 18.2701 -43.5507 -28.6906 -7.75532 13.4393 -1.60387e-007 9.91179e-008 -1.70536e-006 -1.79237e-006 4.59955e-007 -1.51182e-006 2.8321e-007 -3.88662e-006 -1.22922e-006 -6.36111e-015 -3.18055e-015 3.18055e-015 -1.60387e-007 9.91179e-008 -1.70536e-006 -1.79237e-006 4.59955e-007 -1.51182e-006 2.8321e-007 -3.88662e-006 -1.22922e-006 -1.60387e-007 9.91179e-008 -1.70536e-006 -1.79237e-006 4.59955e-007 -1.51182e-006 2.8321e-007 -3.88662e-006 -1.22922e-006 -6.36111e-015 -3.18055e-015 3.18055e-015 -1.60387e-007 9.91179e-008 -1.70536e-006 -1.79237e-006 4.59955e-007 -1.51182e-006 2.8321e-007 -3.88662e-006 -1.22922e-006 -1.60387e-007 9.91179e-008 -1.70536e-006 -1.79237e-006 4.59955e-007 -1.51182e-006 2.8321e-007 -3.88662e-006 -1.22922e-006 1.78037 -3.91804 0.488698 66.4961 6.47668 24.0537 17.5569 6.76332 5.16497 -0.669628 0.525997 2.97619 7.95139e-016 0 -3.18055e-015 2.38542e-015 0 -1.27222e-014 1.59028e-015 -3.18055e-015 -6.36111e-015 7.95139e-016 -3.18055e-015 -0 -7.95139e-016 3.18055e-015 -9.54166e-015 0 0 -3.18055e-015 7.95139e-016 -3.18055e-015 -0 -7.95139e-016 3.18055e-015 -9.54166e-015 0 0 -3.18055e-015 7.95139e-016 -3.18055e-015 -0 7.95139e-016 -3.18055e-015 -0 -7.95139e-016 3.18055e-015 -9.54166e-015 0 0 -3.18055e-015 7.95139e-016 -3.18055e-015 -0 -7.95139e-016 3.18055e-015 -9.54166e-015 0 0 -3.18055e-015 7.95139e-016 -3.18055e-015 -0 -3.94179 -10.0618 0.940124 -4.22013 33.3059 3.92515 12.5562 -2.12859 0.227198 177.538 -13.1883 177.453 1.36116 44.4429 -2.65206 -9.0733 -14.583 -1.07839 
0.1462 89.3228 27.7944 -6.13111e-015 7.19345 180 -0.491483 4.26921 -0.231364 -0.969675 8.54023 -0.427666 -0.969676 8.54023 -0.427666 24.8973 -14.9631 5.83148 11.3908 -15.0014 -25.0158 -16.2112 -20.3793 -25.8102 -15.321 -19.4934 -43.6003 -27.62 18.3569 -43.7362 -28.6096 -7.80652 13.5617 -1.3109e-006 8.42919e-007 6.90967e-007 6.5545e-007 -4.21459e-007 -3.45483e-007 -6.5545e-007 4.21459e-007 3.45483e-007 3.18055e-015 6.36111e-015 3.18055e-015 -1.3109e-006 8.42919e-007 6.90967e-007 6.5545e-007 -4.21459e-007 -3.45483e-007 -6.5545e-007 4.21459e-007 3.45483e-007 -1.3109e-006 8.42919e-007 6.90967e-007 6.5545e-007 -4.21459e-007 -3.45483e-007 -6.5545e-007 4.21459e-007 3.45483e-007 3.18055e-015 6.36111e-015 3.18055e-015 -1.3109e-006 8.42919e-007 6.90967e-007 6.5545e-007 -4.21459e-007 -3.45483e-007 -6.5545e-007 4.21459e-007 3.45483e-007 -1.3109e-006 8.42919e-007 6.90967e-007 6.5545e-007 -4.21459e-007 -3.45483e-007 -6.5545e-007 4.21459e-007 3.45483e-007 1.77647 -3.76584 0.445263 66.4961 6.47666 24.0537 17.6079 6.78761 5.22633 -0.737161 0.547191 3.0241 -4.08277e-007 -1.21162e-006 1.13127e-006 -6.12416e-007 -1.81743e-006 1.6969e-006 -2.04139e-007 -6.05809e-007 5.65634e-007 -7.95139e-016 0 -3.18055e-015 -4.08277e-007 -1.21162e-006 1.13127e-006 -6.12416e-007 -1.81743e-006 1.6969e-006 -2.04139e-007 -6.05809e-007 5.65634e-007 -4.08277e-007 -1.21162e-006 1.13127e-006 -6.12416e-007 -1.81743e-006 1.6969e-006 -2.04139e-007 -6.05809e-007 5.65634e-007 -7.95139e-016 0 -3.18055e-015 -4.08277e-007 -1.21162e-006 1.13127e-006 -6.12416e-007 -1.81743e-006 1.6969e-006 -2.04139e-007 -6.05809e-007 5.65634e-007 -4.08277e-007 -1.21162e-006 1.13127e-006 -6.12416e-007 -1.81743e-006 1.6969e-006 -2.04139e-007 -6.05809e-007 5.65634e-007 -3.97048 -10.5945 0.921874 -4.17087 33.4675 3.90939 12.5439 -2.24039 0.246177 177.568 -12.9636 177.494 1.45106 44.1397 -2.69456 -9.1074 -14.4578 -1.0634 
